Coordinates
version=1
nRows=7
nColumns=40
inDegrees=yes

Units are S.I. units (second, meters, Newtons, ...)
Angles are in degrees.

endheader
time	pelvis_tilt	pelvis_list	pelvis_rotation	pelvis_tx	pelvis_ty	pelvis_tz	hip_flexion_r	hip_adduction_r	hip_rotation_r	knee_angle_r	knee_angle_r_beta	ankle_angle_r	subtalar_angle_r	mtp_angle_r	hip_flexion_l	hip_adduction_l	hip_rotation_l	knee_angle_l	knee_angle_l_beta	ankle_angle_l	subtalar_angle_l	mtp_angle_l	lumbar_extension	lumbar_bending	lumbar_rotation	arm_flex_r	arm_add_r	arm_rot_r	elbow_flex_r	pro_sup_r	wrist_flex_r	wrist_dev_r	arm_flex_l	arm_add_l	arm_rot_l	elbow_flex_l	pro_sup_l	wrist_flex_l	wrist_dev_l
     59.04250000	     -4.02248437	     -2.49672444	     -0.57440245	      0.97613801	      0.93096745	      0.44128763	     38.25932326	     -8.46115269	     -3.99325978	     69.22107824	     69.22107824	     -2.06898198	    -15.78064263	      0.84969184	     13.65002127	     -4.25704645	     -9.18968263	     19.94652753	     19.94652753	     12.23628715	     -9.62455295	     -5.76178342	    -11.07510667	      3.42603676	      3.48534237	      5.26278761	    -14.90706485	     -5.85584995	     67.03318673	     45.68432463	      0.00000000	      0.00000000	     18.18455214	    -12.46066841	      4.27871907	     44.76626684	     46.43473657	      0.00000000	      0.00000000
     59.05357143	     -4.01277548	     -2.46396724	     -1.02090476	      0.97556789	      0.93119585	      0.44226307	     38.89490942	     -8.19841082	     -3.60764126	     67.46017321	     67.46017321	     -1.75158014	    -15.25525271	      0.72134317	     12.79359089	     -4.31119371	     -9.71063104	     19.46090949	     19.46090949	     12.47341146	     -9.37397695	     -6.10364277	    -11.18647599	      3.33030229	      3.62557543	      4.96199648	    -14.86466150	     -6.01082317	     60.78410522	     45.89090925	      0.00000000	      0.00000000	     19.72671540	    -13.28237704	      4.96485426	     46.73011843	     46.39930340	      0.00000000	      0.00000000
     59.06464286	     -4.01822157	     -2.48539442	     -1.37259386	      0.97516646	      0.93135766	      0.44312678	     39.33472351	     -8.00586207	     -3.47152707	     65.35675795	     65.35675795	     -1.39593670	    -14.67300561	      0.65243763	     11.90540635	     -4.36400293	    -10.07472213	     18.86759733	     18.86759733	     12.73175815	     -9.20910847	     -6.30877092	    -11.31959265	      3.41340180	      3.85162205	      4.10384003	    -15.00877463	     -6.00162957	     56.03026346	     46.04168393	      0.00000000	      0.00000000	     21.18812886	    -13.90899678	      5.36996694	     48.70069928	     46.39558968	      0.00000000	      0.00000000
     59.07571429	     -4.14049045	     -2.46628842	     -1.67738372	      0.97483301	      0.93130984	      0.44403458	     39.73866756	     -7.84065422	     -3.34052618	     62.91389580	     62.91389580	     -1.23464861	    -14.15058694	      0.39395888	     11.18708007	     -4.37603083	    -10.38568692	     18.33725640	     18.33725640	     12.81256252	     -9.06186667	     -6.89161460	    -11.13872487	      3.44475503	      2.82256423	      5.54270824	    -14.24112863	     -6.30407158	     47.14188110	     46.34151705	      0.00000000	      0.00000000	     21.58384539	    -15.87220048	      6.69684939	     51.73406637	     46.31972673	      0.00000000	      0.00000000
     59.08678571	     -4.18358048	     -2.43052152	     -1.99870319	      0.97468984	      0.93124482	      0.44501295	     39.86111650	     -7.71393409	     -3.32897837	     60.14192985	     60.14192985	     -0.98494442	    -13.61439304	      0.03371548	     10.32705260	     -4.34344788	    -10.66463660	     17.73395615	     17.73395615	     12.95930074	     -9.00245918	     -7.24902822	    -11.20613842	      3.45662095	      2.69968079	      5.30788151	    -14.25774083	     -6.41046625	     41.57720704	     46.50308581	      0.00000000	      0.00000000	     22.46049676	    -16.86378901	      6.76887900	     54.67518184	     46.38063144	      0.00000000	      0.00000000
     59.09785714	     -4.26179372	     -2.44686414	     -2.29107810	      0.97471970	      0.93107759	      0.44601178	     39.79984131	     -7.58479825	     -3.52887043	     57.02373647	     57.02373647	     -0.55731893	    -12.90751200	      0.10144015	      9.48936776	     -4.35969844	    -10.91687757	     17.13053562	     17.13053562	     13.22940488	     -8.84689820	     -7.31765756	    -11.25949274	      3.59427342	      3.19704624	      3.51977143	    -14.77389849	     -6.41222222	     39.35806424	     46.56885143	      0.00000000	      0.00000000	     24.00702087	    -17.02026575	      6.52536775	     56.30245346	     46.43970821	      0.00000000	      0.00000000
     59.10892857	     -4.38568881	     -2.32637857	     -2.58884551	      0.97485627	      0.93064533	      0.44712807	     39.63442744	     -7.53526689	     -3.69630391	     53.60497905	     53.60497905	     -0.39390480	    -12.40864974	     -0.74405247	      8.69624803	     -4.23746162	    -11.24244865	     16.49585141	     16.49585141	     13.26997500	     -8.73707609	     -7.96301188	    -11.17532728	      3.49661232	      2.88356899	      4.18142693	    -14.51379692	     -7.18066632	     31.93699224	     46.86580749	      0.00000000	      0.00000000	     24.55905077	    -18.47046329	      7.19031623	     59.70537655	     46.46747870	      0.00000000	      0.00000000
